<svg xmlns="http://www.w3.org/2000/svg" xmlns:xlink="http://www.w3.org/1999/xlink" viewBox="0 0 868.2 607.49"><defs><style>.cls-1{fill:none;}.cls-2{fill:url(#linear-gradient);}.cls-3{fill:#f2e8e8;}.cls-4,.cls-8{font-size:115.72px;fill:#211d1d;}.cls-12,.cls-4{font-family:GillSans-Light, Gill Sans;font-weight:300;}.cls-4{letter-spacing:0em;}.cls-5{letter-spacing:-0.01em;}.cls-6{letter-spacing:-0.01em;}.cls-7{letter-spacing:0.01em;}.cls-8{font-family:GillSans-SemiBold, Gill Sans;font-weight:600;letter-spacing:0em;}.cls-9{letter-spacing:-0.01em;}.cls-10{letter-spacing:-0.01em;}.cls-11{letter-spacing:-0.01em;}.cls-12{font-size:41.24px;fill:#706363;letter-spacing:0.01em;}.cls-13{letter-spacing:0em;}.cls-14{letter-spacing:0em;}.cls-15{letter-spacing:0em;}.cls-16{letter-spacing:0.02em;}.cls-17{letter-spacing:0em;}.cls-18{letter-spacing:-0.02em;}.cls-19{letter-spacing:0.01em;}.cls-20{letter-spacing:0em;}.cls-21{letter-spacing:0.01em;}.cls-22{letter-spacing:-0.02em;}.cls-23{letter-spacing:0.01em;}.cls-24{letter-spacing:0.03em;}.cls-25{letter-spacing:-0.01em;}.cls-26{letter-spacing:0.01em;}.cls-27{letter-spacing:0.01em;}</style><linearGradient id="linear-gradient" x1="52.27" y1="170.72" x2="268.09" y2="422.08" gradientUnits="userSpaceOnUse"><stop offset="0.08" stop-color="#db5b50"/><stop offset="1" stop-color="#db4a3d"/></linearGradient></defs><g id="Layer_2" data-name="Layer 2"><g id="Layer_1-2" data-name="Layer 1"><rect class="cls-1" width="868.2" height="607.49"/><rect class="cls-2" x="34.49" y="169.49" width="236.6" height="236.6" rx="57.07"/><path class="cls-3" d="M242.2,328.53,236.9,311,219,248.24c-3.49-14.85-16-26.58-31.23-28.36a37,37,0,0,0-29.81,9.8l4.54,4.81a30.43,30.43,0,0,1,24.5-8c12.32,1.44,22.49,10.89,25.47,22.91h0l.17.59a29.59,29.59,0,0,1,.69,4.92c.56,9.68-2.83,15.65-10.63,25.33L189,296.86c-10.89-28.44-24.46-49.3-43.61-67.19a37.13,37.13,0,0,0-29.69-9.8c-16.45,1.88-30,15.32-32.31,31.63h0L67.93,309.74l-4.56,18.79a19.83,19.83,0,0,0,3.2,17.7A25.15,25.15,0,0,0,86.86,356c10.84,0,20.72-6.78,23.51-16.13,1.6-5.38,5.58-19.43,7.93-27.73l21.54,26.21a15.23,15.23,0,0,0,11.8,5.58h0a15.2,15.2,0,0,0,11.8-5.58l23-27.95,8.79,29.47c2.83,9.5,12.5,16.13,23.51,16.13A25.13,25.13,0,0,0,239,346.23,19.83,19.83,0,0,0,242.2,328.53ZM104,337.94c-2,6.61-9.19,11.41-17.17,11.41a18.54,18.54,0,0,1-15-7.06,13.22,13.22,0,0,1-2.13-12l4.59-18.91,11-41.61a37.28,37.28,0,0,0,2.38,5.09,30.4,30.4,0,0,0,4.63,5.92c1,1.09,2.07,2.22,3.14,3.61l17.68,21.51C111.42,312.12,106,331.44,104,337.94Zm54.31-3.83a8.65,8.65,0,0,1-13.39,0l-44.26-53.85c-1.2-1.56-2.41-2.86-3.48-4a25,25,0,0,1-3.71-4.66A30.43,30.43,0,0,1,89.69,254a30.78,30.78,0,0,1,26.72-27.6,29.5,29.5,0,0,1,3.51-.2,30.63,30.63,0,0,1,20.92,8.26c19.19,17.93,32.58,39.07,43.27,68.26Zm75.35,8.18a18.53,18.53,0,0,1-15,7.06c-8.11,0-15.17-4.69-17.17-11.41L191.48,304.2l16.29-19.83c4.27-5.29,7.93-10.21,10.09-15.94l12.69,44.44,5.32,17.58A13.08,13.08,0,0,1,233.69,342.29Z"/><text class="cls-4" transform="translate(313.62 324.53)">M<tspan class="cls-5" x="90.38" y="0">o</tspan><tspan class="cls-6" x="151.68" y="0">j</tspan><tspan class="cls-7" x="172.66" y="0">e</tspan></text><text class="cls-8" transform="translate(552.98 324.54)">s<tspan class="cls-9" x="46.28" y="0">r</tspan><tspan class="cls-10" x="93.43" y="0">d</tspan><tspan class="cls-11" x="156.12" y="0">c</tspan><tspan class="cls-7" x="208.48" y="0">e</tspan></text><text class="cls-12" transform="translate(502.62 372.88)">A<tspan class="cls-13" x="28.1" y="0">p</tspan><tspan class="cls-14" x="49.2" y="0">l</tspan><tspan class="cls-15" x="56.93" y="0">i</tspan><tspan class="cls-16" x="64.89" y="0">k</tspan><tspan class="cls-17" x="83.5" y="0">a</tspan><tspan class="cls-18" x="101.21" y="0">c</tspan><tspan class="cls-19" x="117.77" y="0">e </tspan><tspan class="cls-20" x="149.8" y="0">p</tspan><tspan class="cls-21" x="171" y="0">r</tspan><tspan class="cls-19" x="185.35" y="0">o </tspan><tspan class="cls-22" x="219.99" y="0">z</tspan><tspan class="cls-23" x="235.64" y="0">d</tspan><tspan class="cls-24" x="257" y="0">r</tspan><tspan class="cls-25" x="272.13" y="0">a</tspan><tspan class="cls-26" x="289.24" y="0">v</tspan><tspan class="cls-27" x="307.21" y="0">í</tspan></text></g></g></svg>