<svg xmlns="http://www.w3.org/2000/svg" width="24.7" height="24" viewBox="0 0 24.7 24">
  <g id="icon_anamneza" data-name="icon anamneza" transform="translate(-107.65 -5)">
    <g id="health" transform="translate(108 -23.43)">
      <g id="Group_10832" data-name="Group 10832" transform="translate(0 30.165)">
        <g id="Group_10831" data-name="Group 10831" transform="translate(0 0)">
          <path id="Path_2647" data-name="Path 2647" d="M22.334,32.115a5.77,5.77,0,0,0-4.369-1.95,6.781,6.781,0,0,0-4.9,2.082A8.307,8.307,0,0,0,12,33.57a8.313,8.313,0,0,0-1.063-1.322,6.781,6.781,0,0,0-4.9-2.082C2.479,30.165,0,33.14,0,36.676c0,4.777,5.063,8.8,11.693,14.546a.469.469,0,0,0,.614,0C18.953,45.463,24,41.447,24,36.676A6.828,6.828,0,0,0,22.334,32.115ZM12,50.248C5.739,44.83.937,40.939.937,36.676c0-3.178,2.191-5.574,5.1-5.574a5.783,5.783,0,0,1,4.213,1.781,6.989,6.989,0,0,1,1.324,1.829.469.469,0,0,0,.427.277h0a.469.469,0,0,0,.428-.277,6.989,6.989,0,0,1,1.324-1.829A5.783,5.783,0,0,1,17.965,31.1c2.906,0,5.1,2.4,5.1,5.574C23.062,41.035,17.944,45.1,12,50.248Z" transform="translate(0 -30.165)" fill="#47474a" stroke="#47474a" stroke-width="0.7"/>
        </g>
      </g>
      <g id="Group_10836" data-name="Group 10836" transform="translate(7.031 36.056)">
        <g id="Group_10835" data-name="Group 10835" transform="translate(0 0)">
          <path id="Path_2649" data-name="Path 2649" d="M159.469,158.93h-2.625V156.3a.469.469,0,0,0-.469-.469h-2.812a.469.469,0,0,0-.469.469v2.625h-2.625a.469.469,0,0,0-.469.469v2.813a.469.469,0,0,0,.469.469h2.625V165.3a.469.469,0,0,0,.469.469h2.813a.469.469,0,0,0,.469-.469V162.68h2.625a.469.469,0,0,0,.469-.469V159.4A.469.469,0,0,0,159.469,158.93ZM159,161.742h-2.625a.469.469,0,0,0-.469.469v2.625h-1.875v-2.625a.469.469,0,0,0-.469-.469h-2.625v-1.875h2.625a.469.469,0,0,0,.469-.469v-2.625h1.875V159.4a.469.469,0,0,0,.469.469H159Z" transform="translate(-150 -155.836)" fill="#47474a" stroke="#47474a" stroke-width="0.7"/>
        </g>
      </g>
    </g>
    <rect id="Rectangle_2862" data-name="Rectangle 2862" width="24" height="24" transform="translate(108 5)" fill="none"/>
  </g>
</svg>
