<svg xmlns="http://www.w3.org/2000/svg" width="32" height="32" viewBox="0 0 32 32">
  <g id="caution" transform="translate(2.5 4.027)" opacity="0.8">
    <path id="Path_10094" data-name="Path 10094" d="M26.63,20.8,15.317,1.2A2.15,2.15,0,0,0,13.5,0a2.15,2.15,0,0,0-1.816,1.2L.371,20.8a2.15,2.15,0,0,0-.134,2.175,2.149,2.149,0,0,0,1.951.971H24.814A1.972,1.972,0,0,0,26.63,20.8Zm-1.236,1.384c-.052.09-.252.18-.581.18H2.187c-.329,0-.529-.09-.58-.18s-.03-.308.134-.593L13.054,1.995c.165-.285.343-.413.446-.413s.282.128.446.413L25.26,21.59C25.424,21.875,25.446,22.093,25.394,22.182Zm0,0" transform="translate(0)" fill="#0666eb"/>
    <path id="Path_10095" data-name="Path 10095" d="M219,327.652a2.11,2.11,0,1,0,2.11,2.11A2.113,2.113,0,0,0,219,327.652Zm0,2.6a.491.491,0,1,1,.491-.491A.492.492,0,0,1,219,330.253Zm0,0" transform="translate(-205.504 -310.529)" fill="#0666eb"/>
    <path id="Path_10096" data-name="Path 10096" d="M219,99.484a2.113,2.113,0,0,0-2.11,2.11v7.11a2.11,2.11,0,0,0,4.22,0v-7.11A2.113,2.113,0,0,0,219,99.484Zm.491,9.22a.491.491,0,0,1-.982,0v-7.11a.491.491,0,1,1,.982,0Zm0,0" transform="translate(-205.504 -94.343)" fill="#0666eb"/>
    <rect id="Rectangle_2987" data-name="Rectangle 2987" width="32" height="32" transform="translate(-2.5 -4.027)" fill="none"/>
  </g>
</svg>
