<svg xmlns="http://www.w3.org/2000/svg" width="32" height="32" viewBox="0 0 32 32">
  <g id="user_2_" data-name="user (2)" transform="translate(3 0.051)">
    <g id="Group_11232" data-name="Group 11232">
      <path id="Path_9931" data-name="Path 9931" d="M102.4,7.682a7.435,7.435,0,0,1-2.251,5.432,7.434,7.434,0,0,1-5.432,2.251h0a7.436,7.436,0,0,1-5.429-2.251,7.434,7.434,0,0,1-2.251-5.432,7.433,7.433,0,0,1,2.251-5.432A7.432,7.432,0,0,1,94.714,0h0a7.437,7.437,0,0,1,5.432,2.251A7.434,7.434,0,0,1,102.4,7.682Zm0,0" transform="translate(-81.613)" fill="#ffbb85"/>
      <path id="Path_9932" data-name="Path 9932" d="M26.613,258.324a5.3,5.3,0,0,1-1.573,4.007,5.663,5.663,0,0,1-4.054,1.479H5.627a5.66,5.66,0,0,1-4.053-1.479A5.3,5.3,0,0,1,0,258.324c0-.641.021-1.274.064-1.884a18.859,18.859,0,0,1,.259-2.016,15.911,15.911,0,0,1,.5-2.026,10.049,10.049,0,0,1,.833-1.89,7.155,7.155,0,0,1,1.256-1.637,5.54,5.54,0,0,1,1.805-1.134,6.24,6.24,0,0,1,2.3-.417,2.335,2.335,0,0,1,1.248.529c.38.248.818.53,1.3.839a7.431,7.431,0,0,0,1.682.742,6.707,6.707,0,0,0,1.854.329q.1,0,.2,0a6.692,6.692,0,0,0,2.059-.333,7.431,7.431,0,0,0,1.683-.742c.489-.312.927-.594,1.3-.839a2.332,2.332,0,0,1,1.249-.53,6.243,6.243,0,0,1,2.3.417,5.545,5.545,0,0,1,1.8,1.134,7.129,7.129,0,0,1,1.256,1.637,10.014,10.014,0,0,1,.833,1.89,15.9,15.9,0,0,1,.5,2.027,19.038,19.038,0,0,1,.258,2.015C26.592,257.048,26.613,257.681,26.613,258.324Zm0,0" transform="translate(0 -231.912)" fill="#0666eb" opacity="0.501"/>
      <path id="Subtraction_3" data-name="Subtraction 3" d="M.125,15.363h0A4.315,4.315,0,0,0,3.57,13.113,9.683,9.683,0,0,0,5.052,7.681,9.678,9.678,0,0,0,3.57,2.251,4.278,4.278,0,0,0,0,0,7.444,7.444,0,0,1,5.424,2.251a7.43,7.43,0,0,1,2.251,5.43,7.434,7.434,0,0,1-2.251,5.433A7.415,7.415,0,0,1,.125,15.363Z" transform="translate(13.115)" fill="#f5a86c"/>
      <path id="Subtraction_4" data-name="Subtraction 4" d="M1.68,16.491H1A3.808,3.808,0,0,0,2.3,15.33a7.008,7.008,0,0,0,1.14-4.2c0-.657-.016-1.32-.046-1.971S3.3,7.8,3.206,7.051s-.216-1.475-.358-2.12a13.093,13.093,0,0,0-.605-1.979,7.811,7.811,0,0,0-.91-1.713A4.131,4.131,0,0,0,.024.052l-.006,0-.006,0L0,.038A1.141,1.141,0,0,1,.293,0,6.232,6.232,0,0,1,2.6.419,5.536,5.536,0,0,1,4.4,1.55a7.219,7.219,0,0,1,1.254,1.64A9.851,9.851,0,0,1,6.489,5.08a15.7,15.7,0,0,1,.5,2.026A19.314,19.314,0,0,1,7.243,9.12c.043.606.065,1.239.065,1.884a5.283,5.283,0,0,1-1.575,4.007A5.65,5.65,0,0,1,1.68,16.491Z" transform="translate(19.305 15.408)" fill="#0666eb"/>
      <rect id="Rectangle_2966" data-name="Rectangle 2966" width="32" height="32" transform="translate(-3 -0.051)" fill="none"/>
    </g>
  </g>
</svg>
