<svg xmlns="http://www.w3.org/2000/svg" width="32" height="32" viewBox="0 0 32 32">
  <g id="icon_onemocneni" transform="translate(-8.451 -89)" opacity="0.8">
    <g id="heart_1_" data-name="heart (1)" transform="translate(10.451 94.72)">
      <g id="Group_10694" data-name="Group 10694" transform="translate(0 0)">
        <path id="Path_2571" data-name="Path 2571" d="M27.521,66.221H25.152a7.5,7.5,0,0,0,.506-5.27A6.336,6.336,0,0,0,19.669,56.4a7.487,7.487,0,0,0-2.582.479,13.391,13.391,0,0,0-2.981,1.49,12.779,12.779,0,0,0-2.981-1.49A7.6,7.6,0,0,0,8.544,56.4a6.336,6.336,0,0,0-5.989,4.551A7.725,7.725,0,0,0,3.3,66.7H.426a.426.426,0,0,0,0,.852h3.38a5.618,5.618,0,0,0,.479.719c2.768,3.992,8.783,8.331,9.875,8.6v.027a.082.082,0,0,0,.053-.027h.08v-.027c.932-.452,6.707-4.179,9.741-8.6a9.79,9.79,0,0,0,.745-1.2h2.795A.42.42,0,0,0,28,66.621.447.447,0,0,0,27.521,66.221Zm-4.259,1.57c-2.821,4.125-8.011,7.452-9.129,8.171-1.144-.719-6.308-4.072-9.156-8.171l-.16-.24H8.73a.439.439,0,0,0,.4-.24L10.913,63.8l2.795,7.16a.436.436,0,0,0,.4.266h.027a.424.424,0,0,0,.4-.319l2.449-8.384,1.3,4.232a.434.434,0,0,0,.346.293.461.461,0,0,0,.426-.186L20.1,65.343l.878,1.49a.425.425,0,0,0,.373.213h2.4C23.582,67.313,23.422,67.552,23.262,67.792Zm.958-1.57H21.612l-1.091-1.863a.425.425,0,0,0-.373-.213.4.4,0,0,0-.373.186l-.9,1.331L17.407,60.9a.494.494,0,0,0-.426-.319.456.456,0,0,0-.426.319L14.08,69.442l-2.688-6.867a.4.4,0,0,0-.373-.266.413.413,0,0,0-.4.24l-2.1,4.125H4.285a7.182,7.182,0,0,1-.878-5.483A5.438,5.438,0,0,1,8.57,57.278a7.081,7.081,0,0,1,2.289.426,12.939,12.939,0,0,1,3.008,1.544.4.4,0,0,0,.532,0A11.6,11.6,0,0,1,17.407,57.7a6.434,6.434,0,0,1,2.289-.426,5.464,5.464,0,0,1,5.164,3.913A7,7,0,0,1,24.221,66.221Z" transform="translate(0 -56.4)" fill="#0666eb" stroke="#0666eb" stroke-width="0.8"/>
      </g>
    </g>
    <rect id="Rectangle_2880" data-name="Rectangle 2880" width="24" height="24" transform="translate(10.451 93)" fill="none"/>
    <rect id="Rectangle_2990" data-name="Rectangle 2990" width="32" height="32" transform="translate(8.451 89)" fill="none"/>
  </g>
</svg>
