<svg xmlns="http://www.w3.org/2000/svg" width="24" height="24.397" viewBox="0 0 24 24.397">
  <g id="icon_dokumenty" data-name="icon dokumenty" transform="translate(-250 -5)">
    <g id="writing" transform="translate(221.683 2.2)">
      <g id="Group_11015" data-name="Group 11015" transform="translate(29.4 2.8)">
        <g id="Group_11014" data-name="Group 11014" transform="translate(0)">
          <path id="Path_9897" data-name="Path 9897" d="M120.053,202.8h-9.924a.829.829,0,0,0,0,1.657h9.924a.829.829,0,0,0,0-1.657Z" transform="translate(-105.451 -193.165)" fill="#47474a"/>
          <path id="Path_9898" data-name="Path 9898" d="M110.129,284.457h6.027a.829.829,0,1,0,0-1.657h-6.027a.829.829,0,1,0,0,1.657Z" transform="translate(-105.451 -269.311)" fill="#47474a"/>
          <path id="Path_9899" data-name="Path 9899" d="M47.856,13.274a.829.829,0,0,0,.829-.829V6.519A3.725,3.725,0,0,0,44.966,2.8H33.119A3.725,3.725,0,0,0,29.4,6.519V23.477A3.725,3.725,0,0,0,33.119,27.2h3.223a.829.829,0,0,0,0-1.657H33.119a2.064,2.064,0,0,1-2.062-2.062V6.519a2.064,2.064,0,0,1,2.062-2.062H44.966a2.064,2.064,0,0,1,2.062,2.062v5.926A.829.829,0,0,0,47.856,13.274Z" transform="translate(-29.4 -2.8)" fill="#47474a"/>
          <path id="Path_9900" data-name="Path 9900" d="M251.573,284.868l5.28-5.271a2.751,2.751,0,0,0-1.946-4.7h0a2.729,2.729,0,0,0-1.946.8l-5.295,5.275a.826.826,0,0,0-.207.347l-1.151,3.791a.827.827,0,0,0,.79,1.07.873.873,0,0,0,.222-.029l3.888-1.079A.825.825,0,0,0,251.573,284.868Zm2.553-7.993a1.093,1.093,0,0,1,1.551,0,1.1,1.1,0,0,1,0,1.556l-.284.284-1.556-1.556Zm-5.8,7.284.655-2.153,3.69-3.681,1.556,1.556-3.671,3.661Z" transform="translate(-235.824 -261.791)" fill="#47474a"/>
          <path id="Path_9901" data-name="Path 9901" d="M120.053,122.8h-9.924a.829.829,0,1,0,0,1.657h9.924a.829.829,0,1,0,0-1.657Z" transform="translate(-105.451 -117.019)" fill="#47474a"/>
        </g>
      </g>
    </g>
    <rect id="Rectangle_2864" data-name="Rectangle 2864" width="24" height="24" transform="translate(250 5)" fill="none"/>
  </g>
</svg>
