<svg xmlns="http://www.w3.org/2000/svg" width="32" height="32" viewBox="0 0 32 32">
  <g id="fingerprint" transform="translate(0.912)">
    <path id="Path_9872" data-name="Path 9872" d="M26.382,6.357a1,1,0,0,1-.673-.259,15.784,15.784,0,0,0-21.266,0A1.009,1.009,0,0,1,3.03,6.035a.984.984,0,0,1,.065-1.4,17.8,17.8,0,0,1,23.962,0,.984.984,0,0,1,.065,1.4,1,1,0,0,1-.74.322Z" transform="translate(0.423 0)" fill="#0666eb"/>
    <path id="Path_9874" data-name="Path 9874" d="M11.144,28.861a1,1,0,0,1-.711-.293c-.219-.218-5.342-5.4-5.342-10.381A9.309,9.309,0,0,1,14.3,8.8a9.309,9.309,0,0,1,9.212,9.383,1,1,0,0,1-2,0,7.317,7.317,0,0,0-7.212-7.4,7.317,7.317,0,0,0-7.212,7.4c0,4.18,4.716,8.94,4.764,8.987a.982.982,0,0,1-.007,1.4A1,1,0,0,1,11.144,28.861Z" transform="translate(1.197 2.816)" fill="#0666eb"/>
    <path id="Path_9875" data-name="Path 9875" d="M18.408,29.8c-2.405,0-7.981-4.53-8.521-9.575a6.359,6.359,0,0,1,1.532-4.88,5.122,5.122,0,0,1,3.8-1.728h.028a5.351,5.351,0,0,1,3.773,1.552,5.506,5.506,0,0,1,1.649,3.957v.645a2.791,2.791,0,1,0,5.58,0v-.226c0-6.164-4.51-11.292-10.269-11.672a10.773,10.773,0,0,0-8.1,2.881A11.479,11.479,0,0,0,6.771,26.312.983.983,0,0,1,6.614,27.7a1,1,0,0,1-1.405-.156A13.445,13.445,0,0,1,6.511,9.31a12.759,12.759,0,0,1,9.6-3.412c6.805.45,12.137,6.445,12.137,13.648v.226a4.79,4.79,0,1,1-9.58,0v-.645a3.553,3.553,0,0,0-1.059-2.553,3.348,3.348,0,0,0-2.363-.977h-.019a3.1,3.1,0,0,0-2.323,1.069,4.36,4.36,0,0,0-1.035,3.351c.441,4.115,5.218,7.8,6.533,7.8a.989.989,0,1,1,0,1.979Z" transform="translate(0.25 1.877)" fill="#0666eb"/>
    <path id="Path_9876" data-name="Path 9876" d="M19.139,25.047c-3.579,0-7.948-4.329-7.948-9.383a1,1,0,0,1,2,0c0,3.917,3.327,7.4,5.948,7.4a.99.99,0,1,1,0,1.98Z" transform="translate(3.23 4.694)" fill="#0666eb"/>
    <g id="Group_11178" data-name="Group 11178" transform="translate(-0.912 0.324)">
      <path id="Path_9873" data-name="Path 9873" d="M28.5,11.886a1,1,0,0,1-.831-.438,14.6,14.6,0,0,0-24.338,0,1.006,1.006,0,0,1-1.388.271.984.984,0,0,1-.273-1.374,16.611,16.611,0,0,1,27.66,0,.983.983,0,0,1-.273,1.374,1.01,1.01,0,0,1-.557.166Z" transform="translate(0.912 0.618)" fill="#0666eb"/>
      <rect id="Rectangle_2946" data-name="Rectangle 2946" width="32" height="31.676" fill="none"/>
    </g>
  </g>
</svg>
