<svg id="hourglass_1_" data-name="hourglass (1)" xmlns="http://www.w3.org/2000/svg" width="24" height="24" viewBox="0 0 24 24">
  <g id="Group_10750" data-name="Group 10750">
    <g id="Group_10749" data-name="Group 10749" transform="translate(3 0.667)">
      <path id="Path_2610" data-name="Path 2610" d="M79.1,21.1V18.768c0-2.742-2.119-4.382-4.155-5.982a1.611,1.611,0,0,1-.639-1.279,2.162,2.162,0,0,1,.639-1.529C76.931,8.311,79.1,6.738,79.1,4V2.237h1.6V0H63.123V2.237h1.6V4c0,2.742,2.174,4.315,4.155,5.982a2.162,2.162,0,0,1,.639,1.529,1.611,1.611,0,0,1-.639,1.279c-2.036,1.6-4.155,3.24-4.155,5.982V21.1h-1.6v2.237H80.7V21.1ZM67.877,6.073A3.067,3.067,0,0,1,66.959,4V2.237h9.909V4a3.067,3.067,0,0,1-.918,2.078H67.877Zm8.99,14.4L73.1,19a3.8,3.8,0,0,0-2.382,0l-3.763,1.469v-1.7c0-1.552,1.233-2.6,3.246-4.18l.053-.042a3.863,3.863,0,0,0,1.428-2.353,1.045,1.045,0,0,0,.456,0,3.86,3.86,0,0,0,1.426,2.352l.054.043c2.012,1.581,3.246,2.628,3.246,4.18v1.7Z" transform="translate(-63.123)" fill="#ffb050"/>
    </g>
    <rect id="Rectangle_2791" data-name="Rectangle 2791" width="24" height="24" fill="none"/>
  </g>
</svg>
