<svg xmlns="http://www.w3.org/2000/svg" width="32" height="32" viewBox="0 0 32 32">
  <g id="hypoallergenic" transform="translate(3 3)" opacity="0.8">
    <path id="Path_10092" data-name="Path 10092" d="M22.192,3.808A13,13,0,0,0,3.808,22.192,13,13,0,0,0,22.192,3.808ZM21.115,21.115A11.477,11.477,0,1,1,4.885,4.885a11.477,11.477,0,1,1,16.23,16.23Z" transform="translate(0)" fill="#0666eb"/>
    <path id="Path_10093" data-name="Path 10093" d="M130.324,76.632l1.208-1.647-1.228-.9-.854,1.164a41.33,41.33,0,0,0-4.491-5.286c-.264.26-7.01,6.947-7.01,11.577a7.01,7.01,0,1,0,14.021,0A10.364,10.364,0,0,0,130.324,76.632Zm-5.365,10.4a5.493,5.493,0,0,1-5.487-5.487c0-1.615,1.024-3.834,2.96-6.418a36.078,36.078,0,0,1,2.527-3,36.053,36.053,0,0,1,2.515,2.98q.56.746,1.017,1.449l-3.621,4.938-2.08-2.081-1.077,1.077,3.336,3.336,4.288-5.847a7.976,7.976,0,0,1,1.11,3.561A5.493,5.493,0,0,1,124.959,87.027Z" transform="translate(-111.959 -66.41)" fill="#0666eb"/>
    <rect id="Rectangle_2989" data-name="Rectangle 2989" width="32" height="32" transform="translate(-3 -3)" fill="none"/>
  </g>
</svg>
