<svg xmlns="http://www.w3.org/2000/svg" width="42" height="42" viewBox="0 0 42 42">
  <g id="Icon_document" transform="translate(-16 -28)">
    <g id="Group_11160" data-name="Group 11160" transform="translate(422.432 -15086.926)">
      <g id="Subtraction_5" data-name="Subtraction 5" transform="translate(-402.432 15114.926)" fill="none" stroke-linecap="round">
        <path d="M30,42H3a3,3,0,0,1-3-3V3A3,3,0,0,1,3,0H24.478L33,8.386V39A3,3,0,0,1,30,42Z" stroke="none"/>
        <path d="M 29.99969863891602 40.4994010925293 C 30.82712936401367 40.4994010925293 31.50029945373535 39.82664108276367 31.50029945373535 38.99970245361328 L 31.50029945373535 9.014588356018066 L 23.86384582519531 1.500000596046448 L 2.999698877334595 1.500000596046448 C 2.172758817672729 1.500000596046448 1.499998807907104 2.172760486602783 1.499998807907104 2.999700546264648 L 1.499998807907104 38.99970245361328 C 1.499998807907104 39.82664108276367 2.172758817672729 40.4994010925293 2.999698877334595 40.4994010925293 L 29.99969863891602 40.4994010925293 M 29.99969863891602 41.9994010925293 L 2.999698877334595 41.9994010925293 C 1.345658779144287 41.9994010925293 -1.226806602971919e-06 40.65373992919922 -1.226806602971919e-06 38.99970245361328 L -1.226806602971919e-06 2.999700546264648 C -1.226806602971919e-06 1.34566056728363 1.345658779144287 5.462646299747576e-07 2.999698877334595 5.462646299747576e-07 L 24.47810935974121 5.462646299747576e-07 L 33.00029754638672 8.386190414428711 L 33.00029754638672 38.99970245361328 C 33.00029754638672 40.65373992919922 31.65423965454102 41.9994010925293 29.99969863891602 41.9994010925293 Z" stroke="none" fill="#7c7c84"/>
      </g>
      <g id="Subtraction_6" data-name="Subtraction 6" transform="translate(-378.336 15114.926)" fill="none" stroke-linecap="round" stroke-linejoin="round">
        <path d="M7.9,9H.9a1,1,0,0,1-1-1V1A1,1,0,0,1,.369.155l8.38,8.38A1,1,0,0,1,7.9,9Z" stroke="none"/>
        <path d="M 5.592886447906494 7.500000476837158 L 1.403706431388855 3.310820817947388 L 1.403706431388855 7.500000476837158 L 5.592886447906494 7.500000476837158 M 7.903796195983887 9.000000953674316 L 0.9036064147949219 9.000000953674316 C 0.3522564172744751 9.000000953674316 -0.09629359096288681 8.551450729370117 -0.09629359096288681 8.000101089477539 L -0.09629359096288681 0.9999006986618042 C -0.09629359096288681 0.6554607152938843 0.07766640931367874 0.3395507037639618 0.3690464198589325 0.1548407077789307 L 8.749006271362305 8.53480052947998 C 8.564146041870117 8.826560974121094 8.248136520385742 9.000000953674316 7.903796195983887 9.000000953674316 Z" stroke="none" fill="#7c7c84"/>
      </g>
      <path id="Path_10115" data-name="Path 10115" d="M-412.96,15117.76h20.42" transform="translate(17.324 13.913)" fill="none" stroke="#7c7c84" stroke-linecap="round" stroke-width="1.5"/>
      <path id="Path_10116" data-name="Path 10116" d="M-412.96,15117.76h20.42" transform="translate(17.324 19.206)" fill="none" stroke="#7c7c84" stroke-linecap="round" stroke-width="1.5"/>
      <path id="Path_10117" data-name="Path 10117" d="M-412.96,15117.76h20.42" transform="translate(17.324 24.499)" fill="none" stroke="#7c7c84" stroke-linecap="round" stroke-width="1.5"/>
    </g>
    <rect id="Rectangle_2941" data-name="Rectangle 2941" width="42" height="42" transform="translate(16 28)" fill="none"/>
  </g>
</svg>
