<svg xmlns="http://www.w3.org/2000/svg" width="316.736" height="230.594" viewBox="0 0 316.736 230.594">
  <g id="illustration_documents" transform="translate(-28.715 -222.438)">
    <path id="Path_10107" data-name="Path 10107" d="M116.3,0c64.229,0,116.3,51.62,116.3,115.3s-52.068,115.3-116.3,115.3S0,178.974,0,115.3,52.068,0,116.3,0Z" transform="translate(78.834 222.438)" fill="#0666eb" opacity="0.26"/>
    <g id="illustration" transform="translate(675.78 -532.367)">
      <g id="Group_10987" data-name="Group 10987" transform="translate(-474.357 800.447)">
        <rect id="Rectangle_2841" data-name="Rectangle 2841" width="97.259" height="130.504" transform="matrix(0.902, 0.431, -0.431, 0.902, 56.277, 0)" fill="#0666eb"/>
        <rect id="Rectangle_2842" data-name="Rectangle 2842" width="47.526" height="3.36" rx="1.68" transform="matrix(0.902, 0.431, -0.431, 0.902, 57.298, 23.103)" fill="#f1f2f2"/>
        <rect id="Rectangle_2843" data-name="Rectangle 2843" width="76.283" height="3.36" rx="1.68" transform="matrix(0.902, 0.431, -0.431, 0.902, 50.235, 37.422)" fill="#f1f2f2"/>
        <rect id="Rectangle_2844" data-name="Rectangle 2844" width="76.283" height="3.36" rx="1.68" transform="matrix(0.902, 0.431, -0.431, 0.902, 43.35, 51.827)" fill="#f1f2f2"/>
        <rect id="Rectangle_2845" data-name="Rectangle 2845" width="76.283" height="3.36" rx="1.68" transform="matrix(0.902, 0.431, -0.431, 0.902, 36.465, 66.231)" fill="#f1f2f2"/>
        <rect id="Rectangle_2846" data-name="Rectangle 2846" width="76.283" height="3.36" rx="1.68" transform="matrix(0.902, 0.431, -0.431, 0.902, 29.581, 80.636)" fill="#6c66ae" opacity="0.43"/>
      </g>
      <path id="Path_9854" data-name="Path 9854" d="M-453.115,929.075-572,977.728l-75.067-139.721,127.205-52.059,17.063,31.759a7.673,7.673,0,0,1-.323,7.815l-.092.147a9.262,9.262,0,0,0-.39,9.435Z" transform="translate(0 -1.316)" fill="#bf7d2d"/>
      <g id="Group_10988" data-name="Group 10988" transform="translate(-507.183 781.16)">
        <rect id="Rectangle_2848" data-name="Rectangle 2848" width="118.79" height="159.395" fill="#f1f2f2"/>
        <rect id="Rectangle_2849" data-name="Rectangle 2849" width="58.047" height="4.104" rx="2.052" transform="translate(13.294 24.921)" fill="#0666eb"/>
        <rect id="Rectangle_2850" data-name="Rectangle 2850" width="93.171" height="4.104" rx="2.052" transform="translate(13.052 44.421)" fill="#0666eb" opacity="0.43"/>
        <rect id="Rectangle_2851" data-name="Rectangle 2851" width="93.171" height="4.104" rx="2.052" transform="translate(13.052 63.921)" fill="#0666eb" opacity="0.43"/>
        <rect id="Rectangle_2852" data-name="Rectangle 2852" width="93.171" height="4.104" rx="2.052" transform="translate(13.052 83.42)" fill="#0666eb" opacity="0.43"/>
        <rect id="Rectangle_2853" data-name="Rectangle 2853" width="93.171" height="4.104" rx="2.052" transform="translate(13.052 102.92)" fill="#0666eb" opacity="0.43"/>
      </g>
      <path id="Path_9855" data-name="Path 9855" d="M-471.959,922.664-572,976.412l-75.067-139.721,107.042-57.51,17.063,31.759a8.988,8.988,0,0,1,.264,7.974l-.069.153a10.853,10.853,0,0,0,.319,9.626Z" transform="translate(0)" fill="#ffb050"/>
      <g id="Group_10989" data-name="Group 10989" transform="translate(-608.622 823.87)">
        <rect id="Rectangle_2854" data-name="Rectangle 2854" width="63.219" height="38.024" transform="translate(0 29.574) rotate(-27.892)" fill="#fff"/>
        <rect id="Rectangle_2855" data-name="Rectangle 2855" width="35.511" height="3.569" rx="1.785" transform="translate(10.551 33.625) rotate(-27.892)" fill="#4c4e5e"/>
        <rect id="Rectangle_2856" data-name="Rectangle 2856" width="22.824" height="3.569" rx="1.785" transform="translate(14.626 41.324) rotate(-27.892)" fill="#4c4e5e"/>
        <rect id="Rectangle_2857" data-name="Rectangle 2857" width="30.529" height="3.569" rx="1.785" transform="translate(18.701 49.024) rotate(-27.892)" fill="#4c4e5e"/>
      </g>
      <path id="Path_9856" data-name="Path 9856" d="M-521.519,875.519l10.29-5.446-13.83-26.129" transform="translate(-23.731 -12.597)" fill="none" stroke="#4c4e5e" stroke-linecap="round" stroke-width="1"/>
      <path id="Path_9858" data-name="Path 9858" d="M-474.711,836.795v-55.62h-32.472" transform="translate(86.291)" fill="none" stroke="#4c4e5e" stroke-linecap="round" stroke-width="1"/>
    </g>
  </g>
</svg>
