<svg xmlns="http://www.w3.org/2000/svg" width="32" height="32" viewBox="0 0 32 32">
  <g id="notifikace" transform="translate(-12 -8.508)">
    <g id="notification" transform="translate(16.922 11.795)">
      <path id="Path_9922" data-name="Path 9922" d="M143.147,395.231a2.978,2.978,0,1,0-2.978,2.973A2.975,2.975,0,0,0,143.147,395.231Zm0,0" transform="translate(-130.404 -372.779)" fill="#f7c92b"/>
      <path id="Path_9923" data-name="Path 9923" d="M180.6,392.258a2.978,2.978,0,0,0-.866.128,2.972,2.972,0,0,1,0,5.69,2.974,2.974,0,1,0,.866-5.818Zm0,0" transform="translate(-170.83 -372.779)" fill="#f2b51d"/>
      <path id="Path_9924" data-name="Path 9924" d="M163.7,35.86a1.763,1.763,0,1,1,1.384-2.076A1.766,1.766,0,0,1,163.7,35.86Zm0,0" transform="translate(-153.586 -30.76)" fill="#f7c92b"/>
      <path id="Path_9925" data-name="Path 9925" d="M187.3,33.784a1.766,1.766,0,0,0-2.08-1.381,1.8,1.8,0,0,0-.258.072,1.763,1.763,0,0,1,0,3.313,1.766,1.766,0,0,0,2.337-2Zm0,0" transform="translate(-175.801 -30.76)" fill="#f2b51d"/>
      <path id="Path_9926" data-name="Path 9926" d="M17.641,107.756H2.89A2.394,2.394,0,0,1,1.4,103.492l.474-.382a4.647,4.647,0,0,0,1.734-3.619V96.984a6.71,6.71,0,0,1,13.419,0v2.554a4.647,4.647,0,0,0,1.675,3.571l.461.384a2.411,2.411,0,0,1,.869,1.853v.024A2.388,2.388,0,0,1,17.641,107.756Zm0,0" transform="translate(-0.5 -85.802)" fill="#f7e249"/>
      <path id="Path_9927" data-name="Path 9927" d="M170.85,103.489l-.461-.384a4.647,4.647,0,0,1-1.675-3.571V96.98a6.714,6.714,0,0,0-8.6-6.429,6.7,6.7,0,0,1,4.819,6.429v2.554a4.647,4.647,0,0,0,1.675,3.571l.462.384a2.412,2.412,0,0,1,.869,1.853v.024a2.388,2.388,0,0,1-2.39,2.386h3.781a2.388,2.388,0,0,0,2.39-2.386v-.024A2.411,2.411,0,0,0,170.85,103.489Zm0,0" transform="translate(-152.187 -85.798)" fill="#f7c92b"/>
      <path id="Path_9928" data-name="Path 9928" d="M219.662,5.749A5.759,5.759,0,1,0,213.9,11.5,5.754,5.754,0,0,0,219.662,5.749Zm0,0" transform="translate(-197.833)" fill="#fc476e"/>
      <path id="Path_9929" data-name="Path 9929" d="M261.893,4.223a5.753,5.753,0,0,1-4.877,10.229,5.753,5.753,0,1,0,4.877-10.229Zm0,0" transform="translate(-244.278 -4.013)" fill="#cc2b5a"/>
      <path id="Path_9930" data-name="Path 9930" d="M300.67,63a.4.4,0,0,1-.4-.4V58.731l-.15.137a.4.4,0,1,1-.542-.593l.823-.749a.4.4,0,0,1,.673.3V62.6A.4.4,0,0,1,300.67,63Zm0,0" transform="translate(-284.6 -54.57)" fill="#e3faff"/>
    </g>
    <rect id="Rectangle_2968" data-name="Rectangle 2968" width="32" height="32" transform="translate(12 8.508)" fill="none"/>
  </g>
</svg>
