<svg xmlns="http://www.w3.org/2000/svg" width="24" height="24.15" viewBox="0 0 24 24.15">
  <g id="pdf_icon" transform="translate(0 0.15)">
    <g id="Group_10997" data-name="Group 10997" transform="translate(3.654 11.03)">
      <g id="Group_10996" data-name="Group 10996" transform="translate(0)">
        <path id="Path_9869" data-name="Path 9869" d="M75.344,240.784a1.018,1.018,0,0,0-.559-.38,4.562,4.562,0,0,0-.932-.058H72.6v3.881h.784v-1.464h.511a4.472,4.472,0,0,0,.813-.056,1.135,1.135,0,0,0,.406-.184,1.064,1.064,0,0,0,.33-.383,1.266,1.266,0,0,0,.13-.6A1.205,1.205,0,0,0,75.344,240.784Zm-.671,1.068a.514.514,0,0,1-.245.191,2.026,2.026,0,0,1-.62.061H73.38V241h.379a3.764,3.764,0,0,1,.564.026.542.542,0,0,1,.315.172.5.5,0,0,1,.124.349A.522.522,0,0,1,74.673,241.852Z" transform="translate(-72.596 -240.346)" fill="#0666eb"/>
      </g>
    </g>
    <g id="Group_10999" data-name="Group 10999" transform="translate(7.268 11.03)">
      <g id="Group_10998" data-name="Group 10998" transform="translate(0)">
        <path id="Path_9870" data-name="Path 9870" d="M154.473,241.406a1.7,1.7,0,0,0-.371-.629,1.3,1.3,0,0,0-.585-.357,2.8,2.8,0,0,0-.739-.074h-1.432v3.881h1.475a2.369,2.369,0,0,0,.694-.082,1.377,1.377,0,0,0,.551-.31,1.712,1.712,0,0,0,.416-.686,2.551,2.551,0,0,0,.119-.826A2.864,2.864,0,0,0,154.473,241.406ZM153.71,243a.821.821,0,0,1-.205.375.723.723,0,0,1-.316.161,2.134,2.134,0,0,1-.474.037h-.585V241h.352a3.55,3.55,0,0,1,.643.037.746.746,0,0,1,.363.183.888.888,0,0,1,.222.376,2.318,2.318,0,0,1,.079.691A2.532,2.532,0,0,1,153.71,243Z" transform="translate(-151.346 -240.346)" fill="#0666eb"/>
      </g>
    </g>
    <g id="Group_11001" data-name="Group 11001" transform="translate(11.192 11.03)">
      <g id="Group_11000" data-name="Group 11000">
        <path id="Path_9871" data-name="Path 9871" d="M239.507,241v-.657h-2.661v3.881h.784v-1.649h1.62v-.657h-1.62V241Z" transform="translate(-236.846 -240.346)" fill="#0666eb"/>
      </g>
    </g>
    <g id="Group_11002" data-name="Group 11002">
      <g id="Group_10995" data-name="Group 10995" transform="translate(1)">
        <g id="Group_10994" data-name="Group 10994" transform="translate(0)">
          <path id="Path_9868" data-name="Path 9868" d="M36.784,6.359,30.8.139A.452.452,0,0,0,30.472,0H21.55a1.813,1.813,0,0,0-1.811,1.81V8.134H16.124a1.356,1.356,0,0,0-1.355,1.354v6.78a1.356,1.356,0,0,0,1.355,1.354h3.616V21.69A1.811,1.811,0,0,0,21.55,23.5H35.1a1.81,1.81,0,0,0,1.811-1.806V6.672A.452.452,0,0,0,36.784,6.359Zm-6.2-5.139L35.5,6.326H30.584Zm-14.46,15.5a.451.451,0,0,1-.451-.451V9.488a.451.451,0,0,1,.451-.451h12.2a.451.451,0,0,1,.451.451v6.78a.451.451,0,0,1-.451.451Zm19.883,4.972a.906.906,0,0,1-.907.9H21.55a.906.906,0,0,1-.907-.9V17.623h7.682a1.356,1.356,0,0,0,1.355-1.354V9.488a1.356,1.356,0,0,0-1.355-1.354H20.643V1.81A.908.908,0,0,1,21.55.9h8.13V6.778a.452.452,0,0,0,.452.452h5.874V21.691Z" transform="translate(-14.769)" fill="#0666eb" stroke="#0666eb" stroke-width="0.3"/>
        </g>
      </g>
      <rect id="Rectangle_2858" data-name="Rectangle 2858" width="24" height="24" fill="none"/>
    </g>
  </g>
</svg>
