<svg xmlns="http://www.w3.org/2000/svg" xmlns:xlink="http://www.w3.org/1999/xlink" width="32" height="32" viewBox="0 0 32 32">
  <defs>
    <clipPath id="clip">
      <use xlink:href="#fill"/>
    </clipPath>
    <clipPath id="clip-2">
      <use xlink:href="#fill-2"/>
    </clipPath>
  </defs>
  <g id="Icon_provedene_vykony" data-name="Icon_provedene vykony" transform="translate(-8.59 -176.367)">
    <rect id="Rectangle_2881" data-name="Rectangle 2881" width="26.427" height="26.427" transform="translate(11.377 179)" fill="none"/>
    <g id="Group_11249" data-name="Group 11249" transform="translate(36.14 205.733) rotate(180)">
      <g id="Group_11249-2" data-name="Group 11249" transform="translate(0)">
        <g id="Rectangle_2970" data-name="Rectangle 2970" transform="translate(2.975 0)" fill="none" stroke="#0666eb" stroke-width="1.5">
          <rect id="fill" width="4.95" height="1.236" rx="0.618" stroke="none"/>
          <path d="M0,0.48594820499420166h4.949636936187744M4.199636936187744,0v1.2359482049942017M4.949636936187744,0.75h-4.949636936187744M0.75,1.2359482049942017v-1.2359482049942017" fill="none" clip-path="url(#clip)"/>
        </g>
        <g id="Rectangle_2972" data-name="Rectangle 2972" transform="translate(0 3.714)" fill="none" stroke="#0666eb" stroke-width="1.5">
          <rect id="fill-2" width="10.9" height="1.235" rx="0.617" stroke="none"/>
          <path d="M0,0.48462820053100586h10.899657249450684M10.149657249450684,0v1.2346282005310059M10.899657249450684,0.75h-10.899657249450684M0.75,1.2346282005310059v-1.2346282005310059" fill="none" clip-path="url(#clip-2)"/>
        </g>
        <g id="Rectangle_2971" data-name="Rectangle 2971" transform="translate(3.719 0)" fill="none" stroke="#0666eb" stroke-width="1.5">
          <rect width="3.462" height="4.948" stroke="none"/>
          <rect x="0.75" y="0.75" width="1.962" height="3.448" fill="none"/>
        </g>
        <g id="Rectangle_2973" data-name="Rectangle 2973" transform="translate(0.884 3.714)" fill="none" stroke="#0666eb" stroke-width="1.5">
          <path d="M0,0H9.132a0,0,0,0,1,0,0V13.849a1,1,0,0,1-1,1H1a1,1,0,0,1-1-1V0A0,0,0,0,1,0,0Z" stroke="none"/>
          <path d="M1.5.75H7.632a.75.75,0,0,1,.75.75V13.849a.25.25,0,0,1-.25.25H1a.25.25,0,0,1-.25-.25V1.5A.75.75,0,0,1,1.5.75Z" fill="none"/>
        </g>
        <g id="Rectangle_2974" data-name="Rectangle 2974" transform="translate(3.965 17.573)" fill="none" stroke="#0666eb" stroke-width="1.5">
          <rect width="2.97" height="3.898" stroke="none"/>
          <rect x="0.75" y="0.75" width="1.47" height="2.398" fill="none"/>
        </g>
        <path id="Path_10142" data-name="Path 10142" d="M0,0V4.836" transform="translate(5.45 21.471)" fill="none" stroke="#0666eb" stroke-linecap="round" stroke-width="1.5"/>
      </g>
      <path id="Path_10143" data-name="Path 10143" d="M2.382,0H0" transform="translate(6.641 9.144)" fill="none" stroke="#0666eb" stroke-linecap="round" stroke-width="1.5"/>
      <path id="Path_10147" data-name="Path 10147" d="M2.382,0H0" transform="translate(6.641 14.591)" fill="none" stroke="#0666eb" stroke-linecap="round" stroke-width="1.5"/>
      <path id="Path_10145" data-name="Path 10145" d="M2.382,0H0" transform="translate(6.641 11.868)" fill="none" stroke="#0666eb" stroke-linecap="round" stroke-width="1.5"/>
    </g>
    <g id="Group_11250" data-name="Group 11250" transform="translate(14.68 187.809)">
      <g id="Rectangle_2975" data-name="Rectangle 2975" transform="translate(0.551)" fill="none" stroke="#0666eb" stroke-width="1.5">
        <rect width="7.708" height="3.303" rx="1" stroke="none"/>
        <rect x="0.75" y="0.75" width="6.208" height="1.803" rx="0.25" fill="none"/>
      </g>
      <path id="Path_10148" data-name="Path 10148" d="M-2460.964,276.5v2.406l-1.536,2.406v.8h7.68v-.8l-1.536-2.406V276.5Z" transform="translate(2463.071 -273.719)" fill="none" stroke="#0666eb" stroke-linejoin="round" stroke-width="1.5"/>
      <g id="Rectangle_2976" data-name="Rectangle 2976" transform="translate(0 7.708)" fill="none" stroke="#0666eb" stroke-linejoin="round" stroke-width="1.5">
        <path d="M0,0H8.809a0,0,0,0,1,0,0V8.91a1,1,0,0,1-1,1H1a1,1,0,0,1-1-1V0A0,0,0,0,1,0,0Z" stroke="none"/>
        <path d="M1.5.75H7.309a.75.75,0,0,1,.75.75V8.91a.25.25,0,0,1-.25.25H1a.25.25,0,0,1-.25-.25V1.5A.75.75,0,0,1,1.5.75Z" fill="none"/>
      </g>
    </g>
    <rect id="Rectangle_2988" data-name="Rectangle 2988" width="32" height="32" transform="translate(8.59 176.367)" fill="none"/>
  </g>
</svg>
