<svg id="qr-code_1_" data-name="qr-code (1)" xmlns="http://www.w3.org/2000/svg" width="32" height="32" viewBox="0 0 32 32">
  <path id="Path_9877" data-name="Path 9877" d="M1.875,1.875H7.5V0H0V7.5H1.875Zm0,0" fill="#0666eb"/>
  <path id="Path_9878" data-name="Path 9878" d="M392,0V1.875h5.625V7.5H399.5V0Zm0,0" transform="translate(-367.5)" fill="#0666eb"/>
  <path id="Path_9879" data-name="Path 9879" d="M397.625,397.625H392V399.5h7.5V392h-1.875Zm0,0" transform="translate(-367.5 -367.5)" fill="#0666eb"/>
  <path id="Path_9880" data-name="Path 9880" d="M1.875,392H0v7.5H7.5v-1.875H1.875Zm0,0" transform="translate(0 -367.5)" fill="#0666eb"/>
  <path id="Path_9881" data-name="Path 9881" d="M61,60v9.375h9.375V63.75H72.25V61.875H70.375V60Zm7.5,7.5H62.875V61.875H68.5Zm0,0" transform="translate(-57.188 -56.25)" fill="#0666eb"/>
  <path id="Path_9882" data-name="Path 9882" d="M282.25,281.25v-9.375H278.5V270h-1.875v1.875H271v1.875h1.875v1.875H271V277.5h1.875v3.75Zm-7.5-7.5h5.625v5.625H274.75Zm0,0" transform="translate(-254.063 -253.125)" fill="#0666eb"/>
  <path id="Path_9883" data-name="Path 9883" d="M66.625,241.875h3.75V240H61v1.875h3.75v1.875H62.875v1.875H64.75v3.75H62.875v1.875H64.75v1.875h9.375V251.25H72.25v-1.875H70.375v1.875h-3.75v-1.875H68.5V247.5H66.625Zm0,0" transform="translate(-57.188 -225)" fill="#0666eb"/>
  <path id="Path_9884" data-name="Path 9884" d="M121,120h1.875v1.875H121Zm0,0" transform="translate(-113.438 -112.5)" fill="#0666eb"/>
  <path id="Path_9885" data-name="Path 9885" d="M361,120h1.875v1.875H361Zm0,0" transform="translate(-338.438 -112.5)" fill="#0666eb"/>
  <path id="Path_9886" data-name="Path 9886" d="M306.625,69.375h3.75V60H301v9.375h3.75V71.25h1.875Zm-3.75-1.875V61.875H308.5V67.5Zm0,0" transform="translate(-282.188 -56.25)" fill="#0666eb"/>
  <path id="Path_9887" data-name="Path 9887" d="M394.75,241.875V240H391v1.875Zm0,0" transform="translate(-366.563 -225)" fill="#0666eb"/>
  <path id="Path_9888" data-name="Path 9888" d="M361,360h1.875v1.875H361Zm0,0" transform="translate(-338.438 -337.5)" fill="#0666eb"/>
  <path id="Path_9889" data-name="Path 9889" d="M241,330h1.875v1.875H241Zm0,0" transform="translate(-225.938 -309.375)" fill="#0666eb"/>
  <path id="Path_9890" data-name="Path 9890" d="M181,303.75h1.875V300H181Zm0,0" transform="translate(-169.688 -281.25)" fill="#0666eb"/>
  <path id="Path_9891" data-name="Path 9891" d="M211,270h1.875v1.875H211Zm0,0" transform="translate(-197.813 -253.125)" fill="#0666eb"/>
  <path id="Path_9892" data-name="Path 9892" d="M62.875,330H61v3.75h1.875Zm0,0" transform="translate(-57.188 -309.375)" fill="#0666eb"/>
  <path id="Path_9893" data-name="Path 9893" d="M61,420h1.875v1.875H61Zm0,0" transform="translate(-57.188 -393.75)" fill="#0666eb"/>
  <path id="Path_9894" data-name="Path 9894" d="M241,60h1.875v1.875H241Zm0,0" transform="translate(-225.938 -56.25)" fill="#0666eb"/>
  <path id="Path_9895" data-name="Path 9895" d="M241,123.75h1.875V120H241Zm0,0" transform="translate(-225.938 -112.5)" fill="#0666eb"/>
  <path id="Path_9896" data-name="Path 9896" d="M242.875,211.875V210H241v3.75h7.5v-1.875Zm0,0" transform="translate(-225.938 -196.875)" fill="#0666eb"/>
</svg>
