<svg xmlns="http://www.w3.org/2000/svg" width="24" height="24" viewBox="0 0 24 24">
  <g id="icon_anamneza" data-name="icon anamneza" transform="translate(-108 -5)">
    <rect id="Rectangle_2862" data-name="Rectangle 2862" width="24" height="24" transform="translate(108 5)" fill="none"/>
    <g id="Group_11228" data-name="Group 11228" transform="translate(427 -11677.96)">
      <path id="Path_10137" data-name="Path 10137" d="M-282.728,11661.855l2.457,2.375,5.92-6.8" transform="translate(-28.272 32.527)" fill="none" stroke="#47474a" stroke-linecap="round" stroke-linejoin="round" stroke-width="1.5"/>
      <g id="Union_37" data-name="Union 37" transform="translate(-319 11684)" fill="none">
        <path d="M7.88,21.457,6.173,18.143H4a4,4,0,0,1-4-4V4A4,4,0,0,1,4,0H20a4,4,0,0,1,4,4V14.143a4,4,0,0,1-4,4H11.365L9.658,21.457a1,1,0,0,1-1.777,0Z" stroke="none"/>
        <path d="M 8.769147872924805 19.90665435791016 L 10.45029067993164 16.64310264587402 L 19.99979972839355 16.64310264587402 C 21.37808036804199 16.64310264587402 22.4994010925293 15.52138328552246 22.4994010925293 14.14260292053223 L 22.4994010925293 3.999603033065796 C 22.4994010925293 2.621323108673096 21.37808036804199 1.500003099441528 19.99979972839355 1.500003099441528 L 3.999600648880005 1.500003099441528 C 2.621320486068726 1.500003099441528 1.500000596046448 2.621323108673096 1.500000596046448 3.999603033065796 L 1.500000596046448 14.14260292053223 C 1.500000596046448 15.52138328552246 2.621320486068726 16.64310264587402 3.999600648880005 16.64310264587402 L 7.088010311126709 16.64310264587402 L 8.769147872924805 19.90665435791016 M 8.769150733947754 21.99892234802246 C 8.41770076751709 21.99892234802246 8.066250801086426 21.81825256347656 7.880400657653809 21.4569034576416 L 6.173380374908447 18.14310264587402 L 3.999600648880005 18.14310264587402 C 1.791000604629517 18.14310264587402 5.462646299747576e-07 16.35210227966309 5.462646299747576e-07 14.14260292053223 L 5.462646299747576e-07 3.999603033065796 C 5.462646299747576e-07 1.791003108024597 1.791000604629517 3.081359864154365e-06 3.999600648880005 3.081359864154365e-06 L 19.99979972839355 3.081359864154365e-06 C 22.20840072631836 3.081359864154365e-06 23.9994010925293 1.791003108024597 23.9994010925293 3.999603033065796 L 23.9994010925293 14.14260292053223 C 23.9994010925293 16.35210227966309 22.20840072631836 18.14310264587402 19.99979972839355 18.14310264587402 L 11.3649206161499 18.14310264587402 L 9.657900810241699 21.4569034576416 C 9.472050666809082 21.81825256347656 9.120600700378418 21.99892234802246 8.769150733947754 21.99892234802246 Z" stroke="none" fill="#47474a"/>
      </g>
    </g>
  </g>
</svg>
