<svg id="icon_uzivatel" data-name="icon uzivatel" xmlns="http://www.w3.org/2000/svg" width="24" height="24" viewBox="0 0 24 24">
  <g id="avatar_1_" data-name="avatar (1)" transform="translate(4.32 2.424)" opacity="0.8">
    <g id="Group_10703" data-name="Group 10703">
      <path id="Path_2576" data-name="Path 2576" d="M49.8,8.417a4.655,4.655,0,1,0-5.473,0,7.692,7.692,0,0,0-4.943,7.176,2.563,2.563,0,0,0,2.56,2.56h10.24a2.563,2.563,0,0,0,2.56-2.56A7.692,7.692,0,0,0,49.8,8.417ZM43.807,4.655a3.258,3.258,0,1,1,3.258,3.258A3.262,3.262,0,0,1,43.807,4.655Zm8.378,12.1H41.945a1.165,1.165,0,0,1-1.164-1.164,6.284,6.284,0,1,1,12.567,0A1.165,1.165,0,0,1,52.185,16.756Z" transform="translate(-39.385)" fill="#47474a"/>
    </g>
  </g>
  <rect id="Rectangle_2865" data-name="Rectangle 2865" width="24" height="24" fill="none"/>
</svg>
